<?xml version="1.0" encoding="UTF-8" standalone="no"?>
<!DOCTYPE svg PUBLIC "-//W3C//DTD SVG 1.1//EN" "http://www.w3.org/Graphics/SVG/1.1/DTD/svg11.dtd">
<svg xmlns="http://www.w3.org/2000/svg" version="1.1" viewBox="0 0 162 142">
<path fill="rgb(75,133,204)" fill-opacity="1.000" d="M 72.27 97.49 Q 77.25 97.21 82.05 95.57 Q 84.16 94.84 84.22 97.07 Q 84.80 116.88 84.25 135.75 Q 84.08 141.72 77.75 141.70 Q 70.99 141.68 64.23 141.37 Q 60.98 141.22 59.56 140.11 Q 57.46 138.45 57.32 135.26 Q 57.11 130.63 57.25 125.89 A 1.07 1.06 -82.5 0 0 56.43 124.81 Q 49.55 123.15 43.33 119.50 A 1.86 1.86 -53.3 0 0 41.02 119.84 Q 37.42 123.69 33.56 126.81 Q 31.49 128.49 29.54 128.03 Q 28.40 127.76 26.43 125.87 Q 22.08 121.70 17.81 117.44 Q 15.69 115.34 14.41 112.88 Q 13.02 110.20 15.05 108.08 L 22.40 100.36 A 0.79 0.75 56.3 0 0 22.54 99.54 L 16.79 85.17 A 1.11 1.04 77.4 0 0 15.76 84.47 Q 10.70 84.64 6.33 84.38 Q 4.03 84.24 2.88 83.41 Q 1.82 82.64 1.21 81.43 Q 0.76 80.55 0.68 78.98 Q 0.02 65.89 0.56 62.56 Q 1.46 57.01 7.26 57.29 Q 11.50 57.50 15.93 57.50 A 1.03 1.03 7.8 0 0 16.92 56.75 Q 18.82 50.00 22.51 43.37 A 1.44 1.43 37.9 0 0 22.30 41.70 Q 18.55 37.69 15.42 33.86 Q 12.89 30.78 14.57 28.14 Q 14.67 27.99 18.08 24.50 Q 26.02 16.36 28.06 14.81 Q 30.68 12.83 33.56 15.22 Q 37.64 18.61 41.59 22.73 A 0.84 0.83 -36.8 0 0 42.61 22.87 Q 48.94 19.26 55.84 17.23 A 2.02 2.02 -9.6 0 0 57.29 15.19 Q 57.08 10.45 57.49 6.33 Q 57.76 3.67 58.85 2.46 Q 60.35 0.79 63.00 0.78 Q 70.34 0.75 77.68 0.75 Q 80.80 0.75 82.12 1.66 Q 84.21 3.09 84.28 6.25 Q 84.65 23.89 84.28 41.54 Q 84.27 41.66 84.38 43.95 Q 84.55 47.53 81.24 46.28 Q 79.16 45.50 79.09 45.48 Q 65.94 41.77 55.06 49.56 Q 47.63 54.88 45.15 64.18 Q 42.68 73.42 46.84 81.98 Q 52.00 92.59 62.52 96.20 Q 67.12 97.78 72.27 97.49 Z"/>
<path fill="rgb(75,133,204)" fill-opacity="1.000" d="M 155.57 9.18 Q 161.14 12.58 161.38 18.37 Q 161.54 22.39 158.81 25.48 Q 156.99 27.53 154.49 28.77 Q 152.06 29.97 149.33 29.80 Q 141.90 29.32 139.46 21.66 A 0.75 0.62 79.1 0 0 138.82 21.13 L 131.06 21.24 A 1.39 1.01 -62.4 0 0 130.20 21.67 L 118.91 33.62 Q 117.35 35.26 115.28 35.26 L 96.56 35.19 A 1.41 1.11 -18.9 0 1 95.68 34.88 Q 94.43 33.75 95.09 32.25 A 0.83 0.71 9.0 0 1 95.81 31.81 L 114.95 31.45 A 1.32 1.13 -64.9 0 0 115.79 31.07 L 128.96 17.67 A 1.37 1.04 -63.0 0 1 129.81 17.26 L 137.97 17.04 A 1.59 1.44 7.5 0 0 139.40 16.05 Q 141.22 10.64 146.44 8.69 Q 151.59 6.75 155.57 9.18 Z"/>
<path fill="rgb(75,133,204)" fill-opacity="1.000" d="M 107.06 69.39 Q 121.40 69.11 137.19 69.26 Q 138.89 69.28 139.55 67.72 Q 141.29 63.63 144.52 61.55 Q 147.79 59.44 151.81 59.99 Q 155.58 60.51 158.18 63.27 Q 160.57 65.82 161.26 69.33 Q 162.47 75.47 156.74 79.72 Q 150.84 84.09 144.46 80.27 Q 140.39 77.83 139.36 73.39 A 0.83 0.82 83.3 0 0 138.56 72.75 Q 118.20 72.75 98.13 72.75 Q 96.63 72.75 95.92 72.43 Q 94.29 71.70 95.51 69.95 A 1.04 0.92 15.8 0 1 96.32 69.56 Q 101.69 69.49 107.06 69.39 Z"/>
<path fill="rgb(75,133,204)" fill-opacity="1.000" d="M 159.69 117.23 Q 162.66 121.59 160.69 126.99 Q 159.62 129.92 157.26 131.70 Q 155.62 132.93 153.68 133.66 Q 151.81 134.37 149.74 134.19 Q 141.86 133.53 139.22 125.67 A 0.76 0.69 80.4 0 0 138.56 125.15 L 131.18 125.01 Q 129.29 124.98 128.16 123.81 L 115.94 111.07 A 2.65 2.58 67.7 0 0 114.05 110.25 L 96.75 110.25 A 1.56 1.13 -18.2 0 1 95.84 109.96 Q 94.61 108.94 95.43 107.36 A 0.88 0.82 12.8 0 1 96.19 106.92 L 116.46 106.77 A 1.74 1.59 65.8 0 1 117.68 107.30 Q 123.11 113.01 128.44 118.81 Q 130.58 121.15 133.00 121.19 Q 135.87 121.23 138.70 120.77 A 0.90 0.87 -83.1 0 0 139.37 120.23 Q 143.36 110.43 152.27 112.42 Q 157.17 113.52 159.69 117.23 Z"/>
</svg>