<?xml version="1.0" encoding="UTF-8" standalone="no"?>
<!DOCTYPE svg PUBLIC "-//W3C//DTD SVG 1.1//EN" "http://www.w3.org/Graphics/SVG/1.1/DTD/svg11.dtd">
<svg xmlns="http://www.w3.org/2000/svg" version="1.1" viewBox="0 0 694 213">
<path fill="rgb(75,133,204)" fill-opacity="1.000" d="M 47.47 48.52 Q 50.72 51.65 54.34 55.50 A 1.17 1.17 53.7 0 0 55.77 55.72 Q 62.12 52.22 68.97 50.19 A 1.86 1.86 -9.7 0 0 70.29 48.33 Q 70.07 43.60 70.49 39.42 Q 70.76 36.66 71.90 35.40 Q 73.48 33.65 76.25 33.68 Q 83.46 33.74 90.68 33.75 Q 93.81 33.75 95.12 34.66 Q 97.21 36.09 97.27 39.25 Q 97.64 58.50 97.25 77.88 Q 97.20 80.21 95.01 79.42 Q 80.82 74.28 69.46 81.68 Q 63.85 85.33 60.69 90.90 Q 57.35 96.80 57.26 103.60 Q 57.17 111.14 61.02 117.69 Q 65.09 124.61 72.31 127.94 Q 82.32 132.56 94.69 128.63 Q 96.94 127.91 97.07 130.27 Q 97.88 145.99 97.38 162.74 Q 97.17 169.86 97.07 170.25 Q 96.02 174.67 90.44 174.57 Q 88.14 174.53 88.06 174.53 Q 77.58 174.75 74.75 174.25 Q 72.61 173.87 71.48 171.98 Q 70.77 170.79 70.54 168.37 Q 70.10 163.86 70.27 158.90 A 1.09 1.08 7.9 0 0 69.44 157.81 Q 63.57 156.41 58.27 153.54 Q 58.23 153.51 57.26 152.91 Q 54.94 151.47 53.22 153.52 Q 52.38 154.52 52.35 154.55 Q 50.04 156.93 46.56 159.81 Q 43.84 162.07 41.48 160.69 Q 41.23 160.54 38.14 157.67 Q 33.00 152.88 28.54 147.47 Q 27.00 145.58 27.02 143.99 Q 27.05 141.90 28.69 140.19 Q 31.64 137.14 35.21 133.69 A 1.43 1.42 54.8 0 0 35.49 132.04 Q 32.07 125.13 29.72 118.17 A 0.75 0.73 82.2 0 0 29.07 117.66 Q 24.41 117.36 19.75 117.46 Q 16.51 117.53 14.86 115.42 Q 13.77 114.02 13.63 110.80 Q 13.44 106.28 13.45 101.75 Q 13.48 95.77 13.71 94.76 Q 14.79 90.15 20.50 90.39 Q 22.92 90.50 22.99 90.50 Q 25.76 90.50 28.59 90.50 A 1.37 1.37 8.6 0 0 29.90 89.54 Q 32.06 82.47 35.65 75.93 A 0.87 0.86 -52.4 0 0 35.52 74.91 Q 32.24 71.48 29.29 68.15 Q 27.13 65.70 26.91 64.01 Q 26.61 61.66 28.60 59.86 Q 30.08 58.51 30.18 58.40 Q 38.68 49.42 41.56 47.56 Q 44.51 45.66 47.47 48.52 Z"/>
<path fill="rgb(75,133,204)" fill-opacity="1.000" d="M 150.41 50.20 A 1.78 1.78 -74.1 0 0 152.33 49.13 Q 154.83 43.09 160.02 41.41 Q 164.65 39.90 168.76 42.24 Q 172.98 44.65 174.25 50.25 Q 175.11 54.06 173.06 57.02 Q 170.57 60.62 166.78 62.09 Q 162.84 63.63 159.21 62.15 Q 154.68 60.31 152.28 54.65 A 1.06 1.05 -11.2 0 0 151.30 54.00 Q 148.62 54.00 146.77 53.81 Q 143.75 53.50 142.01 55.61 Q 140.78 57.11 140.74 57.16 Q 136.01 62.01 131.21 67.19 A 3.34 3.34 -68.5 0 1 128.77 68.25 Q 119.98 68.25 111.21 68.25 Q 111.16 68.25 110.30 68.31 Q 108.60 68.44 107.96 66.63 A 1.43 1.41 -10.1 0 1 109.29 64.75 L 127.93 64.46 A 1.22 1.22 21.1 0 0 128.79 64.08 L 140.90 51.43 A 3.48 3.09 -70.4 0 1 142.72 50.43 Q 147.03 49.68 150.41 50.20 Z"/>
<path fill="rgb(75,133,204)" fill-opacity="1.000" d="M 255.56 76.44 Q 268.81 81.13 267.07 95.56 Q 266.16 103.11 259.73 107.58 Q 257.90 108.85 259.04 110.74 L 269.51 128.02 Q 270.61 129.85 269.07 131.30 Q 266.78 133.47 264.68 132.32 Q 263.64 131.75 262.10 129.42 Q 256.48 120.87 251.24 112.08 Q 250.17 110.28 248.83 110.41 Q 246.91 110.61 245.00 110.35 Q 239.73 109.64 239.00 113.07 Q 238.94 113.31 239.07 118.44 Q 239.18 123.00 239.29 128.71 Q 239.32 130.70 237.65 131.78 Q 234.26 133.98 232.45 130.99 Q 231.57 129.54 231.55 126.70 Q 231.45 103.23 231.44 79.75 Q 231.43 75.11 235.59 74.96 Q 237.80 74.88 237.91 74.87 Q 248.21 73.84 255.56 76.44 Z M 255.84 84.41 Q 252.18 81.79 247.75 81.89 Q 244.93 81.96 244.74 81.95 Q 242.62 81.95 240.54 82.24 A 1.16 1.15 -2.2 0 0 239.56 83.29 Q 238.96 92.16 239.52 101.30 A 1.91 1.90 3.1 0 0 241.11 103.06 Q 246.54 103.95 251.90 102.53 Q 255.95 101.45 257.86 99.27 Q 260.28 96.50 260.08 92.25 Q 259.84 87.27 255.84 84.41 Z"/>
<path fill="rgb(108,146,188)" fill-opacity="1.000" d="M 415.47 75.14 Q 417.65 74.35 419.10 76.05 Q 419.99 77.10 420.04 79.21 Q 420.72 111.59 420.25 118.00 Q 419.81 124.00 424.32 125.26 Q 427.16 126.05 427.79 126.56 Q 430.13 128.44 428.27 130.84 Q 427.13 132.30 425.08 132.56 Q 421.30 133.02 418.31 130.94 Q 413.42 127.52 413.00 121.00 Q 412.53 113.62 412.75 81.00 Q 412.76 78.94 413.21 77.50 Q 413.75 75.76 415.47 75.14 Z"/>
<path fill="rgb(126,153,182)" fill-opacity="1.000" d="M 497.07 93.67 Q 502.58 93.47 504.00 94.25 Q 507.02 95.90 505.58 98.00 Q 504.74 99.21 502.85 99.65 Q 500.18 100.28 497.17 99.97 A 0.83 0.83 3.1 0 0 496.25 100.79 Q 496.25 109.75 496.32 118.50 Q 496.37 124.91 503.19 125.06 Q 505.39 125.11 506.66 126.87 Q 507.85 128.53 507.17 130.29 Q 506.35 132.42 503.51 132.59 Q 493.93 133.18 490.31 124.69 Q 488.79 121.11 488.92 117.02 Q 489.00 114.54 489.00 114.47 Q 489.00 98.74 488.99 83.00 Q 488.98 79.60 492.50 79.50 Q 494.63 79.44 495.50 80.86 Q 495.98 81.63 496.04 83.73 Q 496.20 88.47 496.53 93.20 A 0.52 0.50 -2.9 0 0 497.07 93.67 Z"/>
<path fill="rgb(157,163,170)" fill-opacity="1.000" d="M 590.13 94.09 Q 590.83 92.04 592.99 91.90 Q 602.26 91.31 611.50 92.25 Q 624.85 93.60 627.00 106.75 Q 627.82 111.75 627.52 126.17 Q 627.52 126.30 627.64 128.31 Q 627.82 131.11 625.44 132.19 Q 622.76 133.40 621.20 131.61 Q 620.27 130.53 620.17 128.13 Q 619.83 119.57 619.99 111.00 Q 620.14 102.99 613.94 100.06 Q 607.75 97.14 601.69 100.69 Q 597.32 103.24 597.12 108.24 Q 596.74 117.49 596.95 126.74 Q 597.01 129.20 596.64 130.21 Q 595.87 132.30 593.63 132.54 Q 591.83 132.74 590.69 131.52 Q 589.51 130.27 589.51 128.25 Q 589.50 112.75 589.50 97.94 Q 589.50 95.97 590.13 94.09 Z"/>
<path fill="rgb(82,136,201)" fill-opacity="1.000" d="M 280.71 98.46 Q 285.33 93.47 291.53 92.29 Q 297.41 91.17 303.25 93.68 Q 313.64 98.13 314.00 111.25 Q 314.05 113.27 312.63 114.32 Q 311.69 115.01 309.69 114.95 Q 297.14 114.62 283.36 115.32 A 0.70 0.69 79.4 0 0 282.74 116.23 Q 284.14 120.43 286.91 123.00 Q 289.60 125.50 293.78 126.20 Q 299.37 127.13 304.57 124.42 Q 306.76 123.28 307.74 123.25 Q 309.87 123.18 310.96 125.15 Q 312.07 127.16 310.15 128.41 Q 306.93 130.49 303.43 131.53 Q 291.66 135.02 283.10 128.33 Q 278.76 124.93 277.06 119.96 Q 275.37 115.00 276.00 109.25 Q 276.71 102.78 280.71 98.46 Z M 285.19 103.69 Q 283.34 106.26 282.89 108.69 A 0.43 0.42 5.1 0 0 283.31 109.19 L 306.25 109.19 A 0.70 0.70 84.9 0 0 306.94 108.36 Q 305.63 101.20 299.40 99.18 Q 290.51 96.29 285.19 103.69 Z"/>
<path fill="rgb(91,139,196)" fill-opacity="1.000" d="M 325.19 97.19 Q 327.09 94.64 329.76 93.51 Q 331.59 92.74 335.28 92.16 Q 345.18 90.61 352.21 97.76 Q 353.42 98.99 353.51 100.19 Q 353.66 102.18 351.50 102.75 Q 349.03 103.41 346.16 101.38 Q 340.34 97.26 333.96 99.32 Q 331.58 100.09 330.66 101.54 Q 329.25 103.80 332.06 106.19 Q 333.80 107.66 339.26 108.70 Q 345.65 109.93 350.44 113.06 Q 352.17 114.20 353.21 116.12 Q 354.12 117.82 354.28 120.00 Q 354.57 124.19 352.25 127.35 Q 350.35 129.93 346.35 131.37 Q 336.13 135.04 325.87 129.95 Q 323.30 128.68 321.87 126.58 Q 320.76 124.95 321.86 123.31 Q 323.26 121.21 325.25 121.34 Q 326.27 121.41 328.32 122.92 Q 334.62 127.59 342.17 125.73 Q 345.19 124.98 346.43 122.98 Q 348.42 119.79 344.19 117.06 Q 343.02 116.31 338.46 115.46 Q 331.78 114.21 326.57 109.90 Q 319.84 104.35 325.19 97.19 Z"/>
<path fill="rgb(99,143,193)" fill-opacity="1.000" d="M 367.13 98.64 Q 370.25 94.76 375.02 93.19 Q 379.78 91.62 384.57 92.11 Q 389.20 92.59 393.42 95.16 Q 404.00 101.63 402.50 115.50 Q 401.73 122.63 396.98 127.16 Q 392.76 131.17 386.05 132.49 Q 376.63 134.33 369.75 128.48 Q 363.29 122.99 362.17 114.87 Q 360.98 106.31 367.13 98.64 Z M 382.4984 126.3199 A 13.86 13.11 89.8 0 0 395.5599 112.4142 A 13.86 13.11 89.8 0 0 382.4016 98.6001 A 13.86 13.11 89.8 0 0 369.3401 112.5058 A 13.86 13.11 89.8 0 0 382.4984 126.3199 Z"/>
<path fill="rgb(117,150,185)" fill-opacity="1.000" d="M 436.43 94.20 Q 439.81 90.36 441.99 93.51 Q 442.99 94.94 443.06 97.73 Q 443.27 105.75 443.43 113.77 Q 443.52 118.08 444.39 120.10 Q 445.84 123.49 449.06 124.94 Q 456.24 128.16 462.19 124.19 Q 467.20 120.84 466.25 114.00 Q 465.82 110.89 466.41 97.03 Q 466.52 94.50 467.59 93.29 Q 469.54 91.10 472.34 93.31 Q 473.72 94.41 473.74 96.17 Q 473.88 113.63 473.50 129.50 Q 473.42 132.78 469.75 133.25 Q 466.77 133.63 453.75 132.95 Q 441.90 132.33 437.82 123.36 Q 436.01 119.37 435.83 109.86 Q 435.70 102.87 435.75 95.98 A 2.74 2.72 66.2 0 1 436.43 94.20 Z"/>
<path fill="rgb(146,160,174)" fill-opacity="1.000" d="M 541.68 99.93 Q 548.90 90.67 561.06 92.44 Q 569.28 93.64 573.75 99.29 Q 577.81 104.43 578.15 111.95 Q 578.58 121.70 570.94 128.44 Q 564.70 133.94 555.01 132.70 Q 541.70 131.00 538.19 118.06 Q 535.44 107.94 541.68 99.93 Z M 557.3475 126.3053 A 13.85 13.10 91.5 0 0 570.8055 112.8029 A 13.85 13.10 91.5 0 0 558.0726 98.6147 A 13.85 13.10 91.5 0 0 544.6145 112.1171 A 13.85 13.10 91.5 0 0 557.3475 126.3053 Z"/>
<path fill="rgb(167,167,167)" fill-opacity="1.000" d="M 654.19 132.91 Q 645.69 132.90 638.71 127.41 Q 636.06 125.33 638.27 122.79 Q 639.65 121.19 641.78 121.54 Q 642.73 121.70 644.87 123.05 Q 651.16 127.01 658.72 125.58 Q 661.68 125.01 663.06 122.66 Q 664.05 120.96 662.86 119.39 Q 661.50 117.60 659.67 116.57 Q 658.60 115.97 655.70 115.37 Q 650.57 114.31 645.78 112.18 Q 640.92 110.02 639.68 105.45 Q 638.82 102.30 640.18 99.17 Q 641.67 95.74 644.81 94.31 Q 657.21 88.69 667.85 96.92 Q 671.58 99.80 668.50 102.24 Q 666.40 103.91 664.32 102.20 Q 658.40 97.30 651.26 98.92 Q 648.57 99.53 647.28 100.98 Q 645.03 103.52 648.81 106.44 Q 650.52 107.76 654.84 108.56 Q 661.07 109.72 666.35 113.19 Q 672.57 117.28 669.98 124.49 Q 667.93 130.20 661.81 131.81 Q 657.68 132.91 654.19 132.91 Z"/>
<rect fill="rgb(136,157,177)" fill-opacity="1.000" x="-3.73" y="-20.18" width="7.46" height="40.36" rx="3.65" transform="translate(521.50,112.50) rotate(0.0)"/>
<path fill="rgb(75,133,204)" fill-opacity="1.000" d="M 152.16 101.36 Q 152.94 99.31 154.44 97.39 Q 155.91 95.51 157.80 94.40 Q 162.26 91.77 166.78 93.48 Q 170.65 94.94 173.00 98.92 Q 176.60 105.02 172.04 110.59 Q 169.42 113.79 166.10 114.71 Q 162.35 115.75 158.41 113.87 Q 154.13 111.82 152.45 106.57 A 1.18 1.17 81.2 0 0 151.33 105.75 L 109.89 105.75 A 1.92 1.91 86.6 0 1 107.99 104.06 Q 107.78 102.33 109.84 102.43 Q 111.09 102.49 111.15 102.49 Q 131.04 102.19 150.96 102.19 A 1.30 1.28 -79.3 0 0 152.16 101.36 Z"/>
<path fill="rgb(75,133,204)" fill-opacity="1.000" d="M 172.69 150.23 Q 175.66 154.59 173.69 159.99 Q 172.62 162.92 170.26 164.70 Q 168.62 165.93 166.68 166.66 Q 164.79 167.38 162.73 167.23 Q 155.08 166.67 152.44 158.83 A 1.35 1.25 -7.9 0 0 151.21 157.97 L 142.75 157.80 A 1.30 1.11 65.7 0 1 141.90 157.40 L 128.68 143.76 A 1.72 1.57 66.0 0 0 127.51 143.25 L 109.76 143.25 A 1.58 1.11 -17.7 0 1 108.84 142.96 Q 107.61 141.94 108.43 140.36 A 0.88 0.82 12.8 0 1 109.19 139.92 L 129.44 139.77 A 1.76 1.66 67.2 0 1 130.72 140.34 Q 136.19 146.28 141.76 151.98 Q 143.41 153.67 145.32 154.01 Q 148.48 154.56 151.70 153.81 A 0.97 0.94 -84.9 0 0 152.37 153.23 Q 156.35 143.42 165.26 145.42 Q 170.17 146.52 172.69 150.23 Z"/>
</svg>